<?xml version="1.0" encoding="UTF-8" standalone="no"?>
<svg
   width="184.6559mm"
   height="34.703461mm"
   viewBox="0 0 184.6559 34.703461"
   version="1.1"
   id="svg8"
   inkscape:export-filename="/media/alvaro/Trabajos/Proyectos/gestionweb.uy/web-app/gw/src/assets/images/logo.png"
   inkscape:export-xdpi="165.06"
   inkscape:export-ydpi="165.06"
   inkscape:version="1.3.2 (9192263913, 2023-12-05, custom)"
   sodipodi:docname="logo.svg"
   xmlns:inkscape="http://www.inkscape.org/namespaces/inkscape"
   xmlns:sodipodi="http://sodipodi.sourceforge.net/DTD/sodipodi-0.dtd"
   xmlns="http://www.w3.org/2000/svg"
   xmlns:svg="http://www.w3.org/2000/svg"
   xmlns:rdf="http://www.w3.org/1999/02/22-rdf-syntax-ns#"
   xmlns:cc="http://creativecommons.org/ns#"
   xmlns:dc="http://purl.org/dc/elements/1.1/">
  <defs
     id="defs2" />
  <sodipodi:namedview
     id="base"
     pagecolor="#ffffff"
     bordercolor="#666666"
     borderopacity="1.0"
     inkscape:pageopacity="0.0"
     inkscape:pageshadow="2"
     inkscape:zoom="0.7"
     inkscape:cx="245.71429"
     inkscape:cy="100"
     inkscape:document-units="mm"
     inkscape:current-layer="g341"
     inkscape:document-rotation="0"
     showgrid="false"
     inkscape:window-width="1920"
     inkscape:window-height="1017"
     inkscape:window-x="0"
     inkscape:window-y="0"
     inkscape:window-maximized="1"
     inkscape:showpageshadow="0"
     inkscape:pagecheckerboard="1"
     inkscape:deskcolor="#d1d1d1" />
  <metadata
     id="metadata5">
    <rdf:RDF>
      <cc:Work
         rdf:about="">
        <dc:format>image/svg+xml</dc:format>
        <dc:type
           rdf:resource="http://purl.org/dc/dcmitype/StillImage" />
      </cc:Work>
    </rdf:RDF>
  </metadata>
  <g
     inkscape:label="Capa 1"
     inkscape:groupmode="layer"
     id="layer1"
     transform="translate(-12.672054,-131.14827)">
    <g
       id="g341"
       transform="translate(-52.238094,35.42217)">
      <g
         id="g1">
        <path
           d="m 82.997771,119.17877 h -3.665009 l -0.185914,-1.85914 c -0.239183,0.26564 -0.584552,0.74366 -1.328208,1.24813 -1.620308,1.08938 -3.34645,1.08938 -4.037189,1.08938 -0.956381,0 -3.452989,-0.0797 -5.57777,-1.88595 -1.327856,-1.14195 -3.293533,-3.55918 -3.293533,-7.88847 0,-0.45155 0.02646,-1.72649 0.371827,-3.05435 0.903111,-3.31999 3.320345,-5.84341 6.693254,-6.61388 0.425097,-0.10583 1.30175,-0.265286 2.443691,-0.265286 1.168753,0 3.851276,0.159456 6.16197,2.523066 1.700036,1.75295 2.018595,3.55918 2.124781,4.51556 h -5.5245 c -0.05292,-0.15946 -0.159103,-0.61101 -0.425098,-1.03611 -0.557741,-0.82339 -1.513769,-1.1684 -2.47015,-1.1684 -0.53093,0 -1.115483,0.13264 -1.593497,0.39828 -1.141942,0.61066 -1.992136,1.96533 -1.992136,4.67466 0,0.2921 -0.02646,2.15124 0.66428,3.42618 0.132645,0.23918 0.478014,0.79693 1.089025,1.22167 0.902759,0.58455 1.779411,0.61101 2.177698,0.61101 0.451555,0 1.726494,-0.0265 2.603147,-1.14229 0.371828,-0.47766 0.451203,-0.82303 0.504472,-1.06222 h -2.443339 v -4.06364 h 7.702198 v 10.3318"
           style="fill:#91d798;fill-opacity:1;fill-rule:nonzero;stroke:none;stroke-width:0.0352778"
           id="path24" />
        <path
           d="m 101.83046,104.96888 h -9.5885 v 2.3375 h 8.71185 v 4.38256 h -8.71185 v 2.7358 h 9.85414 v 4.75403 H 86.558004 v -18.75155 h 15.272456 v 4.54166"
           style="fill:#91d798;fill-opacity:1;fill-rule:nonzero;stroke:none;stroke-width:0.0352778"
           id="path26" />
        <path
           d="m 114.81903,106.0579 c 0,-0.42474 -0.1591,-0.71719 -0.26564,-0.90311 -0.4512,-0.69038 -1.43404,-0.8763 -2.20451,-0.8763 -0.0529,0 -0.4512,0 -0.77011,0.0533 -0.53128,0.13265 -1.11548,0.42475 -1.11548,1.11549 0.0264,0.71684 0.55774,0.8763 1.6203,1.1684 0.50448,0.15945 1.03576,0.29245 1.56704,0.42509 0.69039,0.18592 1.40759,0.39829 2.09797,0.61066 0.53129,0.15946 1.03611,0.31891 1.54058,0.53164 0.23919,0.0794 1.16876,0.50447 1.88595,1.06221 0.66393,0.53128 1.85914,1.75295 1.85914,3.98427 0,0.92957 -0.18591,1.80623 -0.5842,2.65607 -1.35466,2.9217 -4.80765,3.77155 -7.70255,3.77155 -1.48731,0 -3.45299,-0.31892 -4.80765,-0.92957 -0.8763,-0.39864 -1.43404,-0.84985 -1.69969,-1.08938 -0.69074,-0.5842 -1.77941,-1.77941 -2.0454,-3.98392 -0.0265,-0.26564 -0.0265,-0.53129 -0.0529,-0.79657 h 5.84341 c 0.0529,0.79657 0.18592,1.43404 0.8763,1.9124 0.39864,0.2921 1.0093,0.53094 2.07187,0.53094 1.64676,0 2.39042,-0.69039 2.39042,-1.56704 0,-0.5842 -0.4251,-0.92957 -1.40794,-1.27494 -1.61995,-0.5842 -3.29318,-0.98284 -4.91349,-1.56704 -1.27494,-0.45156 -2.54987,-1.03576 -3.31999,-2.20451 -0.74365,-1.08903 -0.77046,-2.44369 -0.77046,-2.84198 0,-0.92957 0.21272,-1.83268 0.66428,-2.6296 1.35431,-2.36397 4.19664,-2.94817 4.88703,-3.08081 0.45155,-0.0797 1.08902,-0.185916 2.12478,-0.185916 0.71719,0 3.08116,0 5.07294,1.221666 0.2921,0.18592 0.82374,0.50483 1.38113,1.1684 1.19556,1.4344 1.22202,3.13443 1.24848,3.74509 l -5.47159,-0.0265"
           style="fill:#91d798;fill-opacity:1;fill-rule:nonzero;stroke:none;stroke-width:0.0352778"
           id="path28" />
        <path
           d="m 137.98101,105.23452 h -5.23275 v 13.94425 h -5.76368 v -13.94425 h -5.25886 v -4.8073 h 16.25529 v 4.8073"
           style="fill:#91d798;fill-opacity:1;fill-rule:nonzero;stroke:none;stroke-width:0.0352778"
           id="path30" />
        <path
           d="m 145.20626,119.17877 h -5.76369 v -18.75155 h 5.76369 v 18.75155"
           style="fill:#91d798;fill-opacity:1;fill-rule:nonzero;stroke:none;stroke-width:0.0352778"
           id="path32" />
        <path
           d="m 157.90202,99.524106 h -3.45299 l 2.60315,-3.798005 h 5.55131 z m -3.13408,5.657494 c -0.50447,0.34502 -0.82338,0.82339 -0.92956,1.0093 -0.39829,0.5842 -0.84985,1.75295 -0.84985,3.47945 0,0.23883 0,2.54988 0.95603,3.90419 0.133,0.21273 0.47802,0.63747 1.08903,0.98284 0.55809,0.2921 1.14229,0.4251 1.7533,0.4251 1.80587,0 2.62926,-1.11549 2.94781,-1.70004 0.74401,-1.35431 0.7172,-3.55917 0.7172,-3.77155 0,-0.45155 0.0533,-2.78906 -1.43404,-4.14337 -0.82374,-0.74366 -1.77977,-0.79693 -2.17805,-0.82339 -1.08903,0 -1.7265,0.37183 -2.07187,0.63747 z m 9.64142,-1.59385 c 0.79693,1.08903 1.88595,3.0279 1.88595,6.2417 0,1.35467 -0.18591,5.4984 -3.82446,8.12765 -2.25778,1.64677 -4.6482,1.70004 -5.6575,1.70004 -1.14229,0 -3.87809,-0.0797 -6.34824,-2.12479 -1.40758,-1.14229 -3.31999,-3.45298 -3.31999,-7.72936 0,-1.96532 0.39864,-3.24026 0.69074,-4.01073 1.48731,-3.95746 4.99322,-5.869868 9.05722,-5.843056 1.38077,0 5.07294,0.238826 7.51628,3.638546"
           style="fill:#91d798;fill-opacity:1;fill-rule:nonzero;stroke:none;stroke-width:0.0352778"
           id="path34" />
        <path
           d="m 185.04827,119.17877 h -5.49804 l -5.89633,-10.65072 0.13265,10.65072 h -5.55131 v -18.75155 h 5.68395 l 5.76404,10.38507 -0.18627,-10.38507 h 5.55131 v 18.75155"
           style="fill:#91d798;fill-opacity:1;fill-rule:nonzero;stroke:none;stroke-width:0.0352778"
           id="path36" />
        <path
           d="m 206.98788,119.17877 h -5.60423 l -2.12478,-11.87239 -1.93887,11.87239 h -5.68431 l -5.12586,-18.75155 h 5.65715 l 2.3375,12.45693 2.25778,-12.45693 h 5.0994 l 2.23097,12.45693 2.36397,-12.45693 h 5.68395 l -5.15267,18.75155"
           style="fill:#ffffff;fill-opacity:1;fill-rule:nonzero;stroke:none;stroke-width:0.0352778"
           id="path38" />
        <path
           d="m 228.26391,107.30638 h -7.69479 v 4.38256 h 7.69479 v -4.38256"
           style="fill:#91d798;fill-opacity:1;fill-rule:nonzero;stroke:none;stroke-width:0.0352778"
           id="path40" />
        <path
           d="m 219.55206,114.42474 v -0.27835 h -0.0226 v -8.88717 h 0.0226 v -0.29034 h 9.5885 v -4.54166 H 213.8681 v 18.75155 h 15.5381 v -4.75403 h -9.85414"
           style="fill:#ffffff;fill-opacity:1;fill-rule:nonzero;stroke:none;stroke-width:0.0352778"
           id="path42" />
        <path
           d="m 238.27786,114.71684 h 3.26672 c 0.69074,-0.0265 1.48766,-0.0265 1.96568,-0.66393 0.13264,-0.15981 0.34537,-0.53129 0.31856,-1.06257 0,-0.39829 -0.13265,-0.77011 -0.18592,-0.84984 -0.2921,-0.66428 -0.77011,-0.92957 -2.04505,-0.92957 h -3.31999 z m 0,-7.14481 h 2.94781 c 0.92992,-0.0265 1.27494,-0.15946 1.56704,-0.5581 0.10654,-0.13264 0.29245,-0.39828 0.29245,-0.82303 0,-0.133 -0.0265,-0.58455 -0.29245,-0.92957 -0.34502,-0.45155 -0.76976,-0.55809 -1.80587,-0.58455 h -2.70898 z m 3.69182,-7.14481 c 2.09797,0.0265 4.38256,0.10618 5.79014,1.99213 0.82338,1.11549 0.87665,2.20451 0.87665,2.73544 -0.0265,0.69074 -0.13299,2.12514 -1.59385,3.24062 -0.23883,0.15946 -0.31856,0.21237 -0.74365,0.45156 0.53128,0.23883 1.03611,0.45155 1.54058,0.82338 0.69074,0.50447 1.72649,1.64677 1.72649,3.798 0,2.68253 -1.46085,3.98428 -2.31069,4.56848 -1.91276,1.27494 -4.4891,1.14194 -5.04684,1.14194 h -9.50842 v -18.75155 h 9.26959"
           style="fill:#ffffff;fill-opacity:1;fill-rule:nonzero;stroke:none;stroke-width:0.0352778"
           id="path44" />
        <path
           d="m 70.038831,128.96871 h -1.626658 v -2.22709 h -1.506361 v 2.22709 h -1.634067 v -5.63563 h 1.634067 v 1.89159 h 1.506361 v -1.89159 h 1.626658 v 5.63563"
           style="fill:#91d798;fill-opacity:1;fill-rule:nonzero;stroke:none;stroke-width:0.0352778"
           id="path46" />
        <path
           d="m 73.156329,127.10886 c -0.128059,0.0797 -0.21837,0.12771 -0.489656,0.19156 -0.120297,0.0321 -0.293511,0.0639 -0.398992,0.13582 -0.06032,0.0399 -0.165805,0.13547 -0.165805,0.3429 0,0.11994 0.05256,0.40746 0.399344,0.39934 0.270934,0 0.519289,-0.1277 0.609953,-0.42298 0.04516,-0.13582 0.04516,-0.26352 0.04516,-0.4071 z m 0.0829,1.85985 c -0.02258,-0.10372 -0.04516,-0.17569 -0.06033,-0.37501 -0.09807,0.0878 -0.188383,0.16757 -0.293864,0.2473 -0.353836,0.24765 -0.813152,0.24765 -0.918633,0.24765 -0.32385,0 -0.677686,-0.072 -0.948972,-0.2794 -0.158045,-0.12771 -0.240947,-0.28751 -0.278695,-0.35913 -0.135466,-0.26352 -0.142875,-0.53516 -0.142875,-0.64664 0,-0.23954 0.04516,-0.78246 0.632531,-1.0541 0.369005,-0.17568 1.077031,-0.25506 1.460853,-0.31926 0.203553,-0.0318 0.459316,-0.0639 0.459316,-0.35913 0,-0.19967 -0.10548,-0.35913 -0.459316,-0.35913 -0.428978,0 -0.504472,0.18345 -0.534811,0.41522 h -1.385359 c 0.01517,-0.30374 0.07514,-0.56691 0.263525,-0.79834 0.270934,-0.3436 0.752828,-0.56691 1.649236,-0.56691 0.180623,0 0.361245,0.0159 0.534812,0.0399 0.369005,0.0399 0.745419,0.11995 1.03893,0.39935 0.12065,0.11148 0.196145,0.23918 0.218722,0.29527 0.08255,0.15981 0.120298,0.35913 0.120298,0.75036 0,0.15981 -0.0074,0.32703 -0.01517,0.49495 v 0.56656 c -0.0074,0.15981 -0.0074,0.3115 -0.0074,0.4632 0,0.39934 0.02999,0.75036 0.06033,0.88618 0.03775,0.15169 0.0829,0.24765 0.10548,0.31115 h -1.4986"
           style="fill:#91d798;fill-opacity:1;fill-rule:nonzero;stroke:none;stroke-width:0.0352778"
           id="path48" />
        <path
           d="m 77.810173,126.41424 c -0.03775,-0.30339 -0.256116,-0.5267 -0.549627,-0.5267 -0.180975,0 -0.361598,0.0879 -0.467078,0.23954 -0.2032,0.2794 -0.188384,0.81386 -0.188384,0.85408 0,0.0878 -0.02999,0.95779 0.655462,0.95003 0.09772,0 0.18803,-0.0162 0.278341,-0.0642 0.128059,-0.0716 0.256117,-0.21519 0.301272,-0.54257 l 1.415698,0.008 c -0.02258,0.15946 -0.02999,0.2152 -0.07514,0.375 -0.263525,0.91829 -0.994128,1.21356 -1.287992,1.29329 -0.127705,0.0399 -0.346075,0.0878 -0.662516,0.0878 -0.346428,0 -0.557389,-0.0561 -0.700264,-0.0956 -0.6477,-0.20003 -1.159934,-0.75071 -1.333148,-1.45309 -0.02999,-0.12806 -0.06032,-0.2794 -0.06032,-0.58279 0,-0.26353 0.01517,-0.87807 0.467078,-1.44498 0.248356,-0.31927 0.723195,-0.75036 1.641828,-0.75036 0.248356,0 1.144411,0.024 1.679222,0.79022 0.248356,0.35913 0.286103,0.69462 0.301273,0.86219 H 77.81018"
           style="fill:#91d798;fill-opacity:1;fill-rule:nonzero;stroke:none;stroke-width:0.0352778"
           id="path50" />
        <path
           d="m 82.313029,126.46998 c -0.0074,-0.0476 -0.01517,-0.18344 -0.06773,-0.3108 -0.06032,-0.14428 -0.21837,-0.39158 -0.594784,-0.39158 -0.112888,0 -0.42933,0.0321 -0.595136,0.35948 -0.07514,0.13547 -0.10548,0.30304 -0.112889,0.3429 z m -1.370542,0.79058 c 0,0.0639 0,0.1598 0.04516,0.29527 0.06032,0.17568 0.233539,0.51894 0.708025,0.51894 0.09031,0 0.301272,0 0.481894,-0.18345 0.02999,-0.0321 0.06773,-0.072 0.112889,-0.15169 h 1.385712 c -0.0829,0.31891 -0.263525,0.55068 -0.331259,0.63853 -0.572205,0.70238 -1.378303,0.71049 -1.656997,0.71049 -0.210608,0 -0.880886,0 -1.438275,-0.45508 -0.263525,-0.21555 -0.722842,-0.74225 -0.722842,-1.66053 0,-0.23953 0.02999,-0.85407 0.436739,-1.40476 0.233539,-0.3115 0.738011,-0.80645 1.671814,-0.80645 0.903464,0.008 1.400881,0.44697 1.634067,0.74224 0.195791,0.25577 0.489655,0.79869 0.489655,1.61255 0,0.048 -0.0078,0.096 -0.0078,0.14394 h -2.808817"
           style="fill:#91d798;fill-opacity:1;fill-rule:nonzero;stroke:none;stroke-width:0.0352778"
           id="path52" />
        <path
           d="m 85.671474,125.40036 c 0.02293,-0.0321 0.10548,-0.15946 0.195792,-0.25541 0.369005,-0.36724 0.843844,-0.38312 1.001888,-0.38312 0.06773,0 0.210609,0.008 0.383823,0.0476 0.451908,0.11218 0.609953,0.42368 0.700616,0.59901 0.08255,-0.11959 0.142875,-0.19967 0.256117,-0.29527 0.150283,-0.12806 0.474133,-0.35137 0.978958,-0.35137 0.489303,0.008 0.775406,0.19967 0.933451,0.33549 0.09066,0.0794 0.263877,0.23919 0.369005,0.55034 0.09807,0.27163 0.09066,0.54292 0.09807,0.63888 v 2.68217 H 89.13575 v -2.30717 c -0.0074,-0.22331 -0.0074,-0.43886 -0.210961,-0.57468 -0.0448,-0.0318 -0.142875,-0.0797 -0.278695,-0.0797 -0.158044,0 -0.263525,0.0638 -0.30868,0.10371 -0.195792,0.1517 -0.195792,0.35137 -0.195792,0.59091 v 2.26695 h -1.445683 v -2.36291 c 0,-0.15169 -0.0078,-0.21555 -0.02258,-0.28716 -0.03775,-0.11995 -0.150636,-0.33549 -0.451909,-0.33549 -0.150636,0 -0.240947,0.0561 -0.293863,0.096 -0.256117,0.18345 -0.225778,0.53481 -0.225778,0.61454 v 2.27507 h -1.453445 v -4.08729 h 1.423106 v 0.51894"
           style="fill:#91d798;fill-opacity:1;fill-rule:nonzero;stroke:none;stroke-width:0.0352778"
           id="path54" />
        <path
           d="m 92.915766,125.99126 c -0.278695,0.19932 -0.301272,0.62265 -0.301272,0.9338 0,0.0561 -0.01517,0.4953 0.143227,0.76624 0.150637,0.24765 0.361598,0.27164 0.466726,0.27164 0.06809,0 0.203552,-0.008 0.339019,-0.12771 0.188383,-0.15981 0.270933,-0.42333 0.270933,-0.93416 0,-0.46284 -0.07514,-0.69426 -0.248355,-0.85407 -0.05256,-0.0557 -0.165453,-0.14358 -0.361597,-0.14358 -0.0448,0 -0.188031,0 -0.308681,0.0878 z m 1.0922,-1.10172 c 0.843139,0.30338 1.310217,1.10948 1.310217,2.01965 -0.0074,0.28751 -0.05256,1.10984 -0.692856,1.68451 -0.203553,0.18345 -0.421569,0.31151 -0.670278,0.39088 -0.135466,0.0402 -0.391583,0.10407 -0.738011,0.10407 -0.271286,0 -0.549628,-0.0321 -0.805744,-0.12771 -0.835731,-0.30338 -1.280231,-1.1176 -1.272823,-2.02776 0,-0.44697 0.09807,-0.75036 0.165806,-0.90982 0.331258,-0.8382 1.084439,-1.24565 1.912761,-1.26153 0.128059,0 0.451909,0.008 0.790928,0.12771"
           style="fill:#91d798;fill-opacity:1;fill-rule:nonzero;stroke:none;stroke-width:0.0352778"
           id="path56" />
        <path
           d="m 98.141816,126.0791 c -0.02258,-0.1277 -0.04516,-0.18379 -0.08255,-0.23142 -0.12065,-0.16792 -0.451908,-0.15169 -0.459316,-0.15169 -0.09066,0 -0.240948,0.008 -0.331612,0.0716 -0.02258,0.0159 -0.09772,0.072 -0.09772,0.1838 0,0.10371 0.06773,0.16757 0.09031,0.18344 0.09031,0.072 0.32385,0.11183 0.602545,0.16792 0.255763,0.0557 0.512233,0.10372 0.760589,0.17533 0.09031,0.0321 0.444147,0.11995 0.685094,0.37501 0.12065,0.12806 0.286456,0.36724 0.286456,0.80645 0,0.14393 -0.02258,0.47096 -0.256117,0.77434 -0.399345,0.53482 -1.122186,0.65476 -1.71697,0.65476 -0.730602,0 -1.159933,-0.18344 -1.430866,-0.39123 -0.13582,-0.096 -0.233539,-0.19967 -0.32385,-0.34325 -0.195792,-0.29563 -0.210962,-0.62266 -0.226131,-0.74225 h 1.400881 c 0.02258,0.13547 0.04515,0.20744 0.07549,0.26317 0.07514,0.12771 0.240947,0.22367 0.549628,0.22367 0.32385,0 0.474133,-0.14394 0.474133,-0.32738 0,-0.0878 -0.03739,-0.16757 -0.09772,-0.21555 -0.02258,-0.008 -0.06032,-0.0318 -0.128059,-0.0561 -0.112888,-0.0318 -0.225777,-0.0476 -0.339019,-0.0794 -0.647347,-0.15204 -1.001536,-0.2159 -1.280231,-0.37535 -0.18803,-0.10407 -0.572205,-0.37536 -0.572205,-0.9899 0,-0.5588 0.286103,-0.80645 0.451908,-0.92604 0.42157,-0.31115 0.933803,-0.36724 1.415697,-0.36724 0.06773,0 1.144764,-0.0399 1.626659,0.55069 0.233539,0.30339 0.256117,0.64664 0.263525,0.76658 h -1.340556"
           style="fill:#91d798;fill-opacity:1;fill-rule:nonzero;stroke:none;stroke-width:0.0352778"
           id="path58" />
        <path
           d="m 104.5726,126.0791 c -0.0226,-0.1277 -0.0451,-0.18379 -0.0825,-0.23142 -0.12065,-0.16792 -0.45191,-0.15169 -0.45931,-0.15169 -0.0907,0 -0.24095,0.008 -0.33162,0.0716 -0.0226,0.0159 -0.0977,0.072 -0.0977,0.1838 0,0.10371 0.0677,0.16757 0.0903,0.18344 0.0903,0.072 0.32385,0.11183 0.60254,0.16792 0.25577,0.0557 0.51223,0.10372 0.76059,0.17533 0.0903,0.0321 0.44415,0.11995 0.68509,0.37501 0.12065,0.12806 0.28646,0.36724 0.28646,0.80645 0,0.14393 -0.0226,0.47096 -0.25612,0.77434 -0.39934,0.53482 -1.12218,0.65476 -1.71697,0.65476 -0.7306,0 -1.15993,-0.18344 -1.43086,-0.39123 -0.13582,-0.096 -0.23354,-0.19967 -0.32385,-0.34325 -0.19579,-0.29563 -0.21096,-0.62266 -0.22613,-0.74225 h 1.40088 c 0.0226,0.13547 0.0452,0.20744 0.0755,0.26317 0.0751,0.12771 0.24095,0.22367 0.54963,0.22367 0.32385,0 0.47413,-0.14394 0.47413,-0.32738 0,-0.0878 -0.0374,-0.16757 -0.0977,-0.21555 -0.0226,-0.008 -0.0603,-0.0318 -0.12805,-0.0561 -0.11289,-0.0318 -0.22578,-0.0476 -0.33902,-0.0794 -0.64735,-0.15204 -1.00154,-0.2159 -1.28024,-0.37535 -0.18803,-0.10407 -0.5722,-0.37536 -0.5722,-0.9899 0,-0.5588 0.2861,-0.80645 0.45191,-0.92604 0.42157,-0.31115 0.9338,-0.36724 1.41569,-0.36724 0.0677,0 1.14477,-0.0399 1.62666,0.55069 0.23354,0.30339 0.25612,0.64664 0.26353,0.76658 h -1.34056"
           style="fill:#91d798;fill-opacity:1;fill-rule:nonzero;stroke:none;stroke-width:0.0352778"
           id="path60" />
        <path
           d="m 110.49927,128.96871 h -1.43087 v -0.51859 l -0.0677,0.0956 c -0.15064,0.21555 -0.47449,0.54293 -1.09185,0.54293 -0.58737,0 -1.12218,-0.28751 -1.31021,-0.90205 -0.0829,-0.25541 -0.0829,-0.52705 -0.0907,-0.78246 v -2.52272 h 1.45345 v 2.1075 c 0,0.21554 -0.03,0.43144 0.10548,0.61489 0.0677,0.096 0.17321,0.1838 0.41416,0.1838 0.0603,0 0.21837,0 0.35383,-0.11219 0.21873,-0.18344 0.21097,-0.50271 0.21097,-0.76623 v -2.02777 h 1.45344 v 4.08729"
           style="fill:#91d798;fill-opacity:1;fill-rule:nonzero;stroke:none;stroke-width:0.0352778"
           id="path62" />
        <path
           d="m 113.57902,128.96871 v -3.12103 h -0.53446 v -0.96626 h 0.53446 v -0.19156 c 0.008,-0.39899 0.0529,-0.75812 0.3616,-1.03752 0.35383,-0.32773 0.84349,-0.3436 1.28023,-0.3436 0.2032,0 0.41416,0 0.62477,0.008 l -0.007,1.07809 c -0.16545,-0.008 -0.33867,-0.0162 -0.50447,-0.008 -0.13547,0.008 -0.2032,0.0399 -0.24836,0.0879 -0.0529,0.0801 -0.0529,0.18379 -0.0529,0.20778 v 0.19932 h 0.77576 v 0.96626 h -0.74577 v 3.12103 h -1.48343"
           style="fill:#91d798;fill-opacity:1;fill-rule:nonzero;stroke:none;stroke-width:0.0352778"
           id="path64" />
        <path
           d="m 118.64703,127.10886 c -0.12771,0.0797 -0.21837,0.12771 -0.48931,0.19156 -0.12065,0.0321 -0.29386,0.0639 -0.39934,0.13582 -0.0603,0.0399 -0.16545,0.13547 -0.16545,0.3429 0,0.11994 0.0526,0.40746 0.39899,0.39934 0.27128,0 0.51964,-0.1277 0.60995,-0.42298 0.0452,-0.13582 0.0452,-0.26352 0.0452,-0.4071 z m 0.0829,1.85985 c -0.0226,-0.10372 -0.0452,-0.17569 -0.0603,-0.37501 -0.0977,0.0878 -0.18803,0.16757 -0.29351,0.2473 -0.35419,0.24765 -0.81315,0.24765 -0.91863,0.24765 -0.32385,0 -0.67804,-0.072 -0.94897,-0.2794 -0.15805,-0.12771 -0.24095,-0.28751 -0.2787,-0.35913 -0.13546,-0.26352 -0.14287,-0.53516 -0.14287,-0.64664 0,-0.23954 0.0451,-0.78246 0.63253,-1.0541 0.36865,-0.17568 1.07668,-0.25506 1.46085,-0.31926 0.2032,-0.0318 0.45932,-0.0639 0.45932,-0.35913 0,-0.19967 -0.10548,-0.35913 -0.45932,-0.35913 -0.42933,0 -0.50482,0.18345 -0.53481,0.41522 h -1.38571 c 0.0152,-0.30374 0.0755,-0.56691 0.26352,-0.79834 0.27129,-0.3436 0.75318,-0.56691 1.64959,-0.56691 0.18062,0 0.36125,0.0159 0.53446,0.0399 0.36901,0.0399 0.74577,0.11995 1.03928,0.39935 0.12065,0.11148 0.1958,0.23918 0.21837,0.29527 0.0829,0.15981 0.12065,0.35913 0.12065,0.75036 0,0.15981 -0.007,0.32703 -0.0152,0.49495 v 0.56656 c -0.007,0.15981 -0.007,0.3115 -0.007,0.4632 0,0.39934 0.03,0.75036 0.06,0.88618 0.0377,0.15169 0.0829,0.24765 0.10548,0.31115 h -1.4986"
           style="fill:#91d798;fill-opacity:1;fill-rule:nonzero;stroke:none;stroke-width:0.0352778"
           id="path66" />
        <path
           d="m 123.30087,126.41424 c -0.0374,-0.30339 -0.25576,-0.5267 -0.54963,-0.5267 -0.18097,0 -0.36159,0.0879 -0.46707,0.23954 -0.2032,0.2794 -0.18804,0.81386 -0.18804,0.85408 0,0.0878 -0.0303,0.95779 0.65511,0.95003 0.0981,0 0.18839,-0.0162 0.2787,-0.0642 0.12806,-0.0716 0.25611,-0.21519 0.30127,-0.54257 l 1.4157,0.008 c -0.0226,0.15946 -0.0303,0.2152 -0.0751,0.375 -0.26388,0.91829 -0.99413,1.21356 -1.288,1.29329 -0.12805,0.0399 -0.34642,0.0878 -0.66251,0.0878 -0.34643,0 -0.55739,-0.0561 -0.70062,-0.0956 -0.6477,-0.20003 -1.15958,-0.75071 -1.33279,-1.45309 -0.03,-0.12806 -0.0603,-0.2794 -0.0603,-0.58279 0,-0.26353 0.0152,-0.87807 0.46708,-1.44498 0.24835,-0.31927 0.72284,-0.75036 1.64147,-0.75036 0.24871,0 1.14477,0.024 1.67923,0.79022 0.2487,0.35913 0.28645,0.69462 0.30127,0.86219 h -1.4157"
           style="fill:#91d798;fill-opacity:1;fill-rule:nonzero;stroke:none;stroke-width:0.0352778"
           id="path68" />
        <path
           d="m 127.54055,125.84768 h -0.79798 v 1.46861 c 0,0.13582 0,0.22367 0.007,0.2794 0.0526,0.26353 0.27093,0.2794 0.46672,0.2794 0.11325,0 0.21873,-0.008 0.32385,-0.0159 v 1.13383 c -0.27869,0.0236 -0.54222,0.0317 -0.82091,0.0317 -0.59478,0 -0.88089,-0.096 -1.10666,-0.30339 -0.33161,-0.30339 -0.34643,-0.68651 -0.34643,-1.10949 v -1.76424 h -0.48225 v -0.96626 h 0.48225 v -1.26118 h 1.47602 v 1.26118 h 0.79798 v 0.96626"
           style="fill:#91d798;fill-opacity:1;fill-rule:nonzero;stroke:none;stroke-width:0.0352778"
           id="path70" />
        <path
           d="m 131.9912,128.96871 h -1.43122 v -0.51859 l -0.0674,0.0956 c -0.15064,0.21555 -0.47449,0.54293 -1.0922,0.54293 -0.58738,0 -1.12183,-0.28751 -1.31022,-0.90205 -0.0829,-0.25541 -0.0829,-0.52705 -0.0903,-0.78246 v -2.52272 h 1.45345 v 2.1075 c 0,0.21554 -0.0303,0.43144 0.10548,0.61489 0.0674,0.096 0.17286,0.1838 0.4138,0.1838 0.0603,0 0.21873,0 0.35419,-0.11219 0.21837,-0.18344 0.21061,-0.50271 0.21061,-0.76623 v -2.02777 h 1.4538 v 4.08729"
           style="fill:#91d798;fill-opacity:1;fill-rule:nonzero;stroke:none;stroke-width:0.0352778"
           id="path72" />
        <path
           d="m 132.72145,124.88142 h 1.40829 l -0.007,0.63077 c 0.15064,-0.26353 0.41416,-0.73448 1.15958,-0.73448 0.0677,0 0.18838,0 0.32385,0.048 v 1.37301 c -0.21837,-0.0878 -0.40675,-0.10371 -0.49706,-0.10371 -0.34643,0 -0.70768,0.17568 -0.8435,0.55068 -0.0751,0.1838 -0.0677,0.42334 -0.0751,0.47096 v 1.85209 h -1.46861 v -4.08729"
           style="fill:#91d798;fill-opacity:1;fill-rule:nonzero;stroke:none;stroke-width:0.0352778"
           id="path74" />
        <path
           d="m 138.40717,127.10886 c -0.12806,0.0797 -0.21872,0.12771 -0.48966,0.19156 -0.12029,0.0321 -0.29386,0.0639 -0.39899,0.13582 -0.0603,0.0399 -0.1658,0.13547 -0.1658,0.3429 0,0.11994 0.0526,0.40746 0.39934,0.39934 0.27093,0 0.51929,-0.1277 0.60995,-0.42298 0.0452,-0.13582 0.0452,-0.26352 0.0452,-0.4071 z m 0.0825,1.85985 c -0.0222,-0.10372 -0.0448,-0.17569 -0.06,-0.37501 -0.0981,0.0878 -0.18839,0.16757 -0.29387,0.2473 -0.35383,0.24765 -0.81315,0.24765 -0.91863,0.24765 -0.32385,0 -0.67769,-0.072 -0.94897,-0.2794 -0.15805,-0.12771 -0.24095,-0.28751 -0.2787,-0.35913 -0.13546,-0.26352 -0.14287,-0.53516 -0.14287,-0.64664 0,-0.23954 0.0452,-0.78246 0.63253,-1.0541 0.369,-0.17568 1.07668,-0.25506 1.46085,-0.31926 0.20355,-0.0318 0.45932,-0.0639 0.45932,-0.35913 0,-0.19967 -0.10548,-0.35913 -0.45932,-0.35913 -0.42898,0 -0.50447,0.18345 -0.53481,0.41522 h -1.38536 c 0.0148,-0.30374 0.0751,-0.56691 0.26353,-0.79834 0.27093,-0.3436 0.75282,-0.56691 1.64923,-0.56691 0.18062,0 0.36125,0.0159 0.53481,0.0399 0.36866,0.0399 0.74542,0.11995 1.03893,0.39935 0.12065,0.11148 0.1958,0.23918 0.21837,0.29527 0.0829,0.15981 0.12065,0.35913 0.12065,0.75036 0,0.15981 -0.007,0.32703 -0.0152,0.49495 v 0.56656 c -0.007,0.15981 -0.007,0.3115 -0.007,0.4632 0,0.39934 0.03,0.75036 0.0603,0.88618 0.0377,0.15169 0.0829,0.24765 0.10548,0.31115 h -1.49895"
           style="fill:#91d798;fill-opacity:1;fill-rule:nonzero;stroke:none;stroke-width:0.0352778"
           id="path76" />
        <path
           d="m 143.06066,126.41424 c -0.0374,-0.30339 -0.25612,-0.5267 -0.54963,-0.5267 -0.18097,0 -0.36159,0.0879 -0.46707,0.23954 -0.2032,0.2794 -0.18839,0.81386 -0.18839,0.85408 0,0.0878 -0.03,0.95779 0.65546,0.95003 0.0977,0 0.18839,-0.0162 0.27834,-0.0642 0.12806,-0.0716 0.25647,-0.21519 0.30128,-0.54257 l 1.41605,0.008 c -0.0226,0.15946 -0.0303,0.2152 -0.0755,0.375 -0.26352,0.91829 -0.99413,1.21356 -1.28764,1.29329 -0.12805,0.0399 -0.34642,0.0878 -0.66287,0.0878 -0.34607,0 -0.55703,-0.0561 -0.70026,-0.0956 -0.6477,-0.20003 -1.15958,-0.75071 -1.33279,-1.45309 -0.0303,-0.12806 -0.0603,-0.2794 -0.0603,-0.58279 0,-0.26353 0.0148,-0.87807 0.46708,-1.44498 0.24835,-0.31927 0.72284,-0.75036 1.64147,-0.75036 0.24871,0 1.14477,0.024 1.67923,0.79022 0.2487,0.35913 0.28645,0.69462 0.30127,0.86219 h -1.4157"
           style="fill:#91d798;fill-opacity:1;fill-rule:nonzero;stroke:none;stroke-width:0.0352778"
           id="path78" />
        <path
           d="m 146.42687,128.96871 h -1.47638 v -4.08729 h 1.47638 z m 0,-4.55013 h -1.47638 v -1.0855 h 1.47638 v 1.0855"
           style="fill:#91d798;fill-opacity:1;fill-rule:nonzero;stroke:none;stroke-width:0.0352778"
           id="path80" />
        <path
           d="m 148.75379,125.99126 c -0.2787,0.19932 -0.30127,0.62265 -0.30127,0.9338 0,0.0561 -0.0152,0.4953 0.14287,0.76624 0.15064,0.24765 0.3616,0.27164 0.46708,0.27164 0.0677,0 0.2032,-0.008 0.33867,-0.12771 0.18838,-0.15981 0.27128,-0.42333 0.27128,-0.93416 0,-0.46284 -0.0755,-0.69426 -0.24835,-0.85407 -0.0529,-0.0557 -0.16581,-0.14358 -0.3616,-0.14358 -0.0452,0 -0.18838,0 -0.30868,0.0878 z m 0.64735,-1.51694 h -0.98637 l 0.73801,-1.14124 h 1.57374 z m 0.4445,0.41522 c 0.84349,0.30338 1.31021,1.10948 1.31021,2.01965 -0.007,0.28751 -0.0526,1.10984 -0.69285,1.68451 -0.2032,0.18345 -0.42157,0.31151 -0.66993,0.39088 -0.13582,0.0402 -0.39193,0.10407 -0.73836,0.10407 -0.27093,0 -0.54963,-0.0321 -0.80575,-0.12771 -0.83573,-0.30338 -1.28023,-1.1176 -1.27247,-2.02776 0,-0.44697 0.0977,-0.75036 0.16546,-0.90982 0.33126,-0.8382 1.08444,-1.24565 1.91276,-1.26153 0.12841,0 0.45191,0.008 0.79093,0.12771"
           style="fill:#91d798;fill-opacity:1;fill-rule:nonzero;stroke:none;stroke-width:0.0352778"
           id="path82" />
        <path
           d="m 153.12118,125.37672 c 0.0303,-0.0402 0.10548,-0.14358 0.21837,-0.25576 0.27128,-0.23954 0.62512,-0.35913 0.97931,-0.35913 0.52705,0.008 0.84314,0.24765 1.00118,0.40711 0.33902,0.35136 0.3616,0.81421 0.3616,1.29328 v 2.50649 h -1.45345 v -2.29906 c 0,-0.15945 0,-0.19156 -0.0226,-0.2794 -0.0603,-0.24729 -0.24836,-0.36689 -0.47414,-0.36689 -0.0603,0 -0.20355,0.008 -0.33902,0.10372 -0.26352,0.18344 -0.24094,0.49459 -0.24094,0.59055 v 2.25108 h -1.4538 v -4.08729 h 1.42346 v 0.4953"
           style="fill:#91d798;fill-opacity:1;fill-rule:nonzero;stroke:none;stroke-width:0.0352778"
           id="path84" />
        <path
           d="m 160.88546,126.0791 c -0.0229,-0.1277 -0.0455,-0.18379 -0.0829,-0.23142 -0.12065,-0.16792 -0.45191,-0.15169 -0.45931,-0.15169 -0.0907,0 -0.2413,0.008 -0.33162,0.0716 -0.0226,0.0159 -0.0977,0.072 -0.0977,0.1838 0,0.10371 0.0677,0.16757 0.0903,0.18344 0.0903,0.072 0.32385,0.11183 0.60254,0.16792 0.25576,0.0557 0.51188,0.10372 0.76059,0.17533 0.0903,0.0321 0.44415,0.11995 0.68509,0.37501 0.12065,0.12806 0.28646,0.36724 0.28646,0.80645 0,0.14393 -0.0226,0.47096 -0.25647,0.77434 -0.39864,0.53482 -1.12183,0.65476 -1.71697,0.65476 -0.73025,0 -1.15958,-0.18344 -1.43051,-0.39123 -0.13547,-0.096 -0.2339,-0.19967 -0.32385,-0.34325 -0.1958,-0.29563 -0.21096,-0.62266 -0.22613,-0.74225 h 1.40088 c 0.0226,0.13547 0.0451,0.20744 0.0755,0.26317 0.0748,0.12771 0.2406,0.22367 0.54963,0.22367 0.3235,0 0.47448,-0.14394 0.47448,-0.32738 0,-0.0878 -0.0381,-0.16757 -0.0981,-0.21555 -0.0226,-0.008 -0.06,-0.0318 -0.12806,-0.0561 -0.11288,-0.0318 -0.22577,-0.0476 -0.33902,-0.0794 -0.6477,-0.15204 -1.00153,-0.2159 -1.28023,-0.37535 -0.18803,-0.10407 -0.5722,-0.37536 -0.5722,-0.9899 0,-0.5588 0.2861,-0.80645 0.45191,-0.92604 0.42157,-0.31115 0.9338,-0.36724 1.41569,-0.36724 0.0681,0 1.14477,-0.0399 1.62702,0.55069 0.23318,0.30339 0.25576,0.64664 0.26352,0.76658 h -1.34056"
           style="fill:#91d798;fill-opacity:1;fill-rule:nonzero;stroke:none;stroke-width:0.0352778"
           id="path86" />
        <path
           d="m 164.31164,128.96871 h -1.47637 v -4.08729 h 1.47637 z m 0,-4.55013 h -1.47637 v -1.0855 h 1.47637 v 1.0855"
           style="fill:#91d798;fill-opacity:1;fill-rule:nonzero;stroke:none;stroke-width:0.0352778"
           id="path88" />
        <path
           d="m 166.45794,125.40036 c 0.0222,-0.0321 0.10548,-0.15946 0.19544,-0.25541 0.36901,-0.36724 0.84349,-0.38312 1.00154,-0.38312 0.0681,0 0.21096,0.008 0.38417,0.0476 0.45191,0.11218 0.61031,0.42368 0.70062,0.59901 0.0829,-0.11959 0.14287,-0.19967 0.25576,-0.29527 0.15064,-0.12806 0.47449,-0.35137 0.97931,-0.35137 0.48931,0.008 0.77576,0.19967 0.93381,0.33549 0.0903,0.0794 0.26352,0.23919 0.369,0.55034 0.0977,0.27163 0.0903,0.54292 0.0977,0.63888 v 2.68217 h -1.45344 v -2.30717 c -0.007,-0.22331 -0.007,-0.43886 -0.21096,-0.57468 -0.0448,-0.0318 -0.14288,-0.0797 -0.2787,-0.0797 -0.15804,0 -0.26352,0.0638 -0.30868,0.10371 -0.19544,0.1517 -0.19544,0.35137 -0.19544,0.59091 v 2.26695 h -1.44603 v -2.36291 c 0,-0.15169 -0.007,-0.21555 -0.0226,-0.28716 -0.0378,-0.11995 -0.15064,-0.33549 -0.45226,-0.33549 -0.15029,0 -0.2406,0.0561 -0.29351,0.096 -0.25577,0.18345 -0.22578,0.53481 -0.22578,0.61454 v 2.27507 h -1.45345 v -4.08729 h 1.42346 v 0.51894"
           style="fill:#91d798;fill-opacity:1;fill-rule:nonzero;stroke:none;stroke-width:0.0352778"
           id="path90" />
        <path
           d="m 173.79255,126.14296 c -0.16581,0.14358 -0.26353,0.36724 -0.26353,0.82232 0,0.45508 0.0903,0.67028 0.26353,0.8061 0.14287,0.11183 0.28575,0.11994 0.35383,0.11994 0.13547,0 0.25577,-0.0402 0.36125,-0.13582 0.21837,-0.19967 0.2413,-0.52669 0.2413,-0.81456 0,-0.0557 0.0222,-0.56656 -0.26353,-0.8061 -0.13582,-0.11148 -0.30162,-0.11148 -0.35419,-0.11148 -0.0677,0 -0.2032,0.008 -0.33866,0.1196 z m -0.21837,4.14302 h -1.47638 v -5.40456 h 1.41605 v 0.43921 c 0.03,-0.0399 0.0677,-0.11183 0.15064,-0.19156 0.14287,-0.15169 0.44414,-0.36724 0.9338,-0.36724 0.39123,0 0.73801,0.13547 1.01671,0.42333 0.28575,0.2794 0.6096,0.8061 0.6096,1.74802 0,0.89394 -0.24836,1.38888 -0.51188,1.6764 -0.39159,0.43921 -0.86607,0.47907 -1.06927,0.47907 -0.19615,0 -0.34678,-0.0399 -0.41452,-0.0639 -0.38382,-0.11959 -0.56444,-0.35137 -0.65475,-0.47908 v 1.74026"
           style="fill:#91d798;fill-opacity:1;fill-rule:nonzero;stroke:none;stroke-width:0.0352778"
           id="path92" />
        <path
           d="m 178.28023,128.96871 h -1.47602 v -5.63563 h 1.47602 v 5.63563"
           style="fill:#91d798;fill-opacity:1;fill-rule:nonzero;stroke:none;stroke-width:0.0352778"
           id="path94" />
        <path
           d="m 181.61645,126.46998 c -0.007,-0.0476 -0.0148,-0.18344 -0.0677,-0.3108 -0.0603,-0.14428 -0.21837,-0.39158 -0.59478,-0.39158 -0.11325,0 -0.42934,0.0321 -0.59514,0.35948 -0.0755,0.13547 -0.10548,0.30304 -0.11289,0.3429 z m -1.37054,0.79058 c 0,0.0639 0,0.1598 0.0452,0.29527 0.0603,0.17568 0.23353,0.51894 0.70802,0.51894 0.09,0 0.30092,0 0.4819,-0.18345 0.03,-0.0321 0.0677,-0.072 0.11288,-0.15169 h 1.38572 c -0.0829,0.31891 -0.26353,0.55068 -0.33162,0.63853 -0.5722,0.70238 -1.37795,0.71049 -1.65664,0.71049 -0.21096,0 -0.88089,0 -1.43828,-0.45508 -0.26352,-0.21555 -0.72319,-0.74225 -0.72319,-1.66053 0,-0.23953 0.0303,-0.85407 0.43674,-1.40476 0.23354,-0.3115 0.73836,-0.80645 1.67217,-0.80645 0.90346,0.008 1.40052,0.44697 1.63406,0.74224 0.19579,0.25577 0.48931,0.79869 0.48931,1.61255 0,0.048 -0.007,0.096 -0.007,0.14394 h -2.80917"
           style="fill:#91d798;fill-opacity:1;fill-rule:nonzero;stroke:none;stroke-width:0.0352778"
           id="path96" />
        <path
           d="m 185.05745,128.77715 c 0,0.0321 0,0.19967 -0.0222,0.33549 -0.0229,0.15981 -0.11289,0.6223 -0.48189,0.94156 -0.1584,0.12806 -0.50483,0.3676 -1.01671,0.37536 v -0.72637 c 0.0903,-0.0162 0.28575,-0.0476 0.45156,-0.23142 0.17321,-0.19156 0.18838,-0.40711 0.18838,-0.50306 h -0.65511 v -1.62843 h 1.536 v 1.43687"
           style="fill:#91d798;fill-opacity:1;fill-rule:nonzero;stroke:none;stroke-width:0.0352778"
           id="path98" />
        <path
           d="m 187.94917,124.88142 h 1.40829 l -0.008,0.63077 c 0.15064,-0.26353 0.41417,-0.73448 1.15994,-0.73448 0.0677,0 0.18838,0 0.32349,0.048 v 1.37301 c -0.21836,-0.0878 -0.4064,-0.10371 -0.49671,-0.10371 -0.34642,0 -0.70802,0.17568 -0.84349,0.55068 -0.0751,0.1838 -0.0677,0.42334 -0.0751,0.47096 v 1.85209 h -1.46861 v -4.08729"
           style="fill:#91d798;fill-opacity:1;fill-rule:nonzero;stroke:none;stroke-width:0.0352778"
           id="path100" />
        <path
           d="m 193.63489,127.10886 c -0.12806,0.0797 -0.21837,0.12771 -0.48966,0.19156 -0.12065,0.0321 -0.29386,0.0639 -0.39934,0.13582 -0.0603,0.0399 -0.16546,0.13547 -0.16546,0.3429 0,0.11994 0.0526,0.40746 0.399,0.39934 0.27128,0 0.51964,-0.1277 0.60995,-0.42298 0.0455,-0.13582 0.0455,-0.26352 0.0455,-0.4071 z m -0.14323,-2.63454 h -0.98637 l 0.73801,-1.14124 h 1.57339 z m 0.22578,4.49439 c -0.0226,-0.10372 -0.0452,-0.17569 -0.0603,-0.37501 -0.0977,0.0878 -0.18803,0.16757 -0.29351,0.2473 -0.35419,0.24765 -0.81315,0.24765 -0.91863,0.24765 -0.32385,0 -0.67804,-0.072 -0.94933,-0.2794 -0.15804,-0.12771 -0.24059,-0.28751 -0.27834,-0.35913 -0.13547,-0.26352 -0.14323,-0.53516 -0.14323,-0.64664 0,-0.23954 0.0452,-0.78246 0.63289,-1.0541 0.369,-0.17568 1.07667,-0.25506 1.46085,-0.31926 0.2032,-0.0318 0.45932,-0.0639 0.45932,-0.35913 0,-0.19967 -0.10513,-0.35913 -0.45932,-0.35913 -0.42933,0 -0.50447,0.18345 -0.53481,0.41522 h -1.38571 c 0.0152,-0.30374 0.0755,-0.56691 0.26352,-0.79834 0.27129,-0.3436 0.75318,-0.56691 1.64924,-0.56691 0.18097,0 0.36195,0.0159 0.53481,0.0399 0.36936,0.0399 0.74542,0.11995 1.03928,0.39935 0.12065,0.11148 0.19579,0.23918 0.21837,0.29527 0.0829,0.15981 0.12065,0.35913 0.12065,0.75036 0,0.15981 -0.007,0.32703 -0.0152,0.49495 v 0.56656 c -0.007,0.15981 -0.007,0.3115 -0.007,0.4632 0,0.39934 0.0303,0.75036 0.06,0.88618 0.0377,0.15169 0.0829,0.24765 0.10548,0.31115 h -1.4986"
           style="fill:#91d798;fill-opacity:1;fill-rule:nonzero;stroke:none;stroke-width:0.0352778"
           id="path102" />
        <path
           d="m 197.48299,126.14296 c -0.16581,0.14358 -0.26353,0.36724 -0.26353,0.82232 0,0.45508 0.0903,0.67028 0.26353,0.8061 0.14287,0.11183 0.2861,0.11994 0.35383,0.11994 0.13547,0 0.25612,-0.0402 0.36125,-0.13582 0.21872,-0.19967 0.2413,-0.52669 0.2413,-0.81456 0,-0.0557 0.0222,-0.56656 -0.26353,-0.8061 -0.13582,-0.11148 -0.30162,-0.11148 -0.35419,-0.11148 -0.0674,0 -0.2032,0.008 -0.33866,0.1196 z m -0.21837,4.14302 h -1.47638 v -5.40456 h 1.41605 v 0.43921 c 0.03,-0.0399 0.0677,-0.11183 0.15064,-0.19156 0.14287,-0.15169 0.4445,-0.36724 0.9338,-0.36724 0.39158,0 0.73801,0.13547 1.01671,0.42333 0.2861,0.2794 0.60995,0.8061 0.60995,1.74802 0,0.89394 -0.24836,1.38888 -0.51223,1.6764 -0.39159,0.43921 -0.86607,0.47907 -1.06927,0.47907 -0.1958,0 -0.34643,-0.0399 -0.41452,-0.0639 -0.38382,-0.11959 -0.56444,-0.35137 -0.65475,-0.47908 v 1.74026"
           style="fill:#91d798;fill-opacity:1;fill-rule:nonzero;stroke:none;stroke-width:0.0352778"
           id="path104" />
        <path
           d="m 201.97103,128.96871 h -1.47638 v -4.08729 h 1.47638 z m 0,-4.55013 h -1.47638 v -1.0855 h 1.47638 v 1.0855"
           style="fill:#91d798;fill-opacity:1;fill-rule:nonzero;stroke:none;stroke-width:0.0352778"
           id="path106" />
        <path
           d="m 204.03407,126.92506 c 0,0.41522 0.0981,0.65476 0.2413,0.7747 0.14288,0.12736 0.30127,0.13547 0.36901,0.13547 0.0825,0 0.30868,-0.024 0.45931,-0.23954 0.0755,-0.11959 0.15029,-0.34325 0.15029,-0.6865 0,-0.41487 -0.0977,-0.9338 -0.6022,-0.94192 -0.369,-0.008 -0.61771,0.26353 -0.61771,0.95779 z m 1.16734,-3.59198 h 1.47638 v 5.63563 h -1.41605 v -0.43886 c -0.0226,0.0399 -0.0529,0.0875 -0.12771,0.17533 -0.2413,0.27164 -0.57256,0.38347 -0.91898,0.38347 -0.12806,0 -0.45967,-0.008 -0.79058,-0.20779 -0.39934,-0.25505 -0.87383,-0.84596 -0.87383,-1.97167 0,-0.13547 0,-0.50271 0.10548,-0.87807 0.21096,-0.75035 0.72284,-1.26929 1.49119,-1.26929 0.15029,0 0.50447,0.024 0.82832,0.30339 0.0829,0.0639 0.11325,0.0956 0.22578,0.23954 v -1.97168"
           style="fill:#91d798;fill-opacity:1;fill-rule:nonzero;stroke:none;stroke-width:0.0352778"
           id="path108" />
        <path
           d="m 209.79493,127.10886 c -0.12806,0.0797 -0.21837,0.12771 -0.4893,0.19156 -0.12065,0.0321 -0.29387,0.0639 -0.39935,0.13582 -0.0603,0.0399 -0.1658,0.13547 -0.1658,0.3429 0,0.11994 0.0529,0.40746 0.39934,0.39934 0.27129,0 0.51964,-0.1277 0.60996,-0.42298 0.0452,-0.13582 0.0452,-0.26352 0.0452,-0.4071 z m 0.0829,1.85985 c -0.0229,-0.10372 -0.0451,-0.17569 -0.0603,-0.37501 -0.0977,0.0878 -0.18803,0.16757 -0.29351,0.2473 -0.35419,0.24765 -0.81351,0.24765 -0.91899,0.24765 -0.32385,0 -0.67768,-0.072 -0.94897,-0.2794 -0.15804,-0.12771 -0.24095,-0.28751 -0.27834,-0.35913 -0.13582,-0.26352 -0.14323,-0.53516 -0.14323,-0.64664 0,-0.23954 0.0452,-0.78246 0.63288,-1.0541 0.36901,-0.17568 1.07633,-0.25506 1.4605,-0.31926 0.2032,-0.0318 0.45967,-0.0639 0.45967,-0.35913 0,-0.19967 -0.10548,-0.35913 -0.45967,-0.35913 -0.42933,0 -0.50412,0.18345 -0.53445,0.41522 h -1.38572 c 0.0152,-0.30374 0.0755,-0.56691 0.26353,-0.79834 0.27129,-0.3436 0.75318,-0.56691 1.64924,-0.56691 0.18062,0 0.36159,0.0159 0.53445,0.0399 0.36936,0.0399 0.74578,0.11995 1.03964,0.39935 0.1203,0.11148 0.19544,0.23918 0.21837,0.29527 0.0825,0.15981 0.12065,0.35913 0.12065,0.75036 0,0.15981 -0.008,0.32703 -0.0152,0.49495 v 0.56656 c -0.008,0.15981 -0.008,0.3115 -0.008,0.4632 0,0.39934 0.0303,0.75036 0.0603,0.88618 0.0377,0.15169 0.0825,0.24765 0.10548,0.31115 h -1.4986"
           style="fill:#91d798;fill-opacity:1;fill-rule:nonzero;stroke:none;stroke-width:0.0352778"
           id="path110" />
        <path
           d="m 216.68539,129.06466 c -0.12841,0.35913 -0.2413,0.67875 -0.53481,0.92604 -0.32385,0.26353 -0.65511,0.29528 -1.04705,0.29528 h -0.96379 l 0.007,-1.24531 c 0.33161,0.008 0.61772,0.0159 0.73096,-0.0399 0.06,-0.024 0.17286,-0.11183 0.17286,-0.29563 0,-0.0635 -0.007,-0.11959 -0.0529,-0.23918 l -1.24213,-3.58458 h 1.57374 l 0.61772,2.47474 0.63253,-2.47474 h 1.51377 l -1.40829,4.18324"
           style="fill:#91d798;fill-opacity:1;fill-rule:nonzero;stroke:none;stroke-width:0.0352778"
           id="path112" />
        <path
           d="m 222.86041,126.0791 c -0.0229,-0.1277 -0.0455,-0.18379 -0.0833,-0.23142 -0.12065,-0.16792 -0.45155,-0.15169 -0.45896,-0.15169 -0.0907,0 -0.2413,0.008 -0.33161,0.0716 -0.0226,0.0159 -0.0977,0.072 -0.0977,0.1838 0,0.10371 0.0677,0.16757 0.0903,0.18344 0.09,0.072 0.32385,0.11183 0.60255,0.16792 0.25576,0.0557 0.51188,0.10372 0.76058,0.17533 0.0903,0.0321 0.44415,0.11995 0.6851,0.37501 0.12065,0.12806 0.2861,0.36724 0.2861,0.80645 0,0.14393 -0.0226,0.47096 -0.25611,0.77434 -0.399,0.53482 -1.12184,0.65476 -1.71697,0.65476 -0.73025,0 -1.15958,-0.18344 -1.43087,-0.39123 -0.13511,-0.096 -0.23354,-0.19967 -0.32385,-0.34325 -0.19544,-0.29563 -0.21061,-0.62266 -0.22578,-0.74225 h 1.40053 c 0.0229,0.13547 0.0452,0.20744 0.0755,0.26317 0.0752,0.12771 0.24095,0.22367 0.54963,0.22367 0.32385,0 0.47484,-0.14394 0.47484,-0.32738 0,-0.0878 -0.0381,-0.16757 -0.0984,-0.21555 -0.0222,-0.008 -0.06,-0.0318 -0.12771,-0.0561 -0.11289,-0.0318 -0.22613,-0.0476 -0.33902,-0.0794 -0.6477,-0.15204 -1.00154,-0.2159 -1.28023,-0.37535 -0.18803,-0.10407 -0.57221,-0.37536 -0.57221,-0.9899 0,-0.5588 0.28611,-0.80645 0.45156,-0.92604 0.42192,-0.31115 0.93416,-0.36724 1.41605,-0.36724 0.0677,0 1.14476,-0.0399 1.62666,0.55069 0.23318,0.30339 0.25611,0.64664 0.26352,0.76658 h -1.3402"
           style="fill:#91d798;fill-opacity:1;fill-rule:nonzero;stroke:none;stroke-width:0.0352778"
           id="path114" />
        <path
           d="m 227.42324,126.46998 c -0.007,-0.0476 -0.0148,-0.18344 -0.0674,-0.3108 -0.0603,-0.14428 -0.21837,-0.39158 -0.59514,-0.39158 -0.11289,0 -0.42933,0.0321 -0.59478,0.35948 -0.0755,0.13547 -0.10548,0.30304 -0.11324,0.3429 z m -1.37054,0.79058 c 0,0.0639 0,0.1598 0.0452,0.29527 0.0603,0.17568 0.23354,0.51894 0.70803,0.51894 0.0903,0 0.30127,0 0.48189,-0.18345 0.03,-0.0321 0.0681,-0.072 0.11324,-0.15169 h 1.38536 c -0.0825,0.31891 -0.26352,0.55068 -0.33126,0.63853 -0.5722,0.70238 -1.37795,0.71049 -1.65664,0.71049 -0.21096,0 -0.88089,0 -1.43828,-0.45508 -0.26387,-0.21555 -0.72319,-0.74225 -0.72319,-1.66053 0,-0.23953 0.0303,-0.85407 0.43674,-1.40476 0.23354,-0.3115 0.73836,-0.80645 1.67181,-0.80645 0.90382,0.008 1.40088,0.44697 1.63442,0.74224 0.19579,0.25577 0.4893,0.79869 0.4893,1.61255 0,0.048 -0.007,0.096 -0.007,0.14394 h -2.80917"
           style="fill:#91d798;fill-opacity:1;fill-rule:nonzero;stroke:none;stroke-width:0.0352778"
           id="path116" />
        <path
           d="m 230.75946,126.19058 c -0.0825,0.12806 -0.14288,0.27164 -0.14288,0.56691 0,0.0797 -0.008,0.32738 0.12771,0.54293 0.12841,0.19932 0.30903,0.2794 0.54222,0.2794 0.47448,0 0.66287,-0.37536 0.66287,-0.82233 0,-0.20743 -0.0226,-0.39123 -0.14288,-0.56691 -0.12806,-0.18344 -0.31644,-0.26317 -0.53481,-0.26317 -0.30903,0 -0.43674,0.15169 -0.51223,0.26317 z m 1.15958,-1.30916 h 1.42346 v 3.75215 c -0.0148,0.27164 -0.0374,0.95003 -0.6851,1.38924 -0.41451,0.2794 -0.88124,0.31926 -1.36313,0.31926 -0.91899,0 -1.37795,-0.19967 -1.67181,-0.56691 -0.1203,-0.14394 -0.21097,-0.31115 -0.26353,-0.49495 -0.0148,-0.0639 -0.03,-0.14358 -0.0452,-0.2794 h 1.46086 c 0.0529,0.1838 0.15804,0.36724 0.54222,0.36724 0.0529,0 0.36159,0.0159 0.51188,-0.22366 0.0903,-0.15134 0.0903,-0.38312 0.0903,-0.55069 l -0.007,-0.43109 c -0.0603,0.0797 -0.12065,0.14358 -0.15099,0.16757 -0.15063,0.14358 -0.42933,0.35136 -0.93345,0.35136 -0.10548,0 -0.369,-0.008 -0.6477,-0.11994 -0.4445,-0.17568 -1.00153,-0.67839 -0.99448,-1.82809 0,-0.22331 -0.007,-0.86219 0.41452,-1.38889 0.43674,-0.5588 1.00894,-0.58279 1.24989,-0.58279 0.65546,0 0.91899,0.36724 1.06927,0.60643 v -0.48684"
           style="fill:#91d798;fill-opacity:1;fill-rule:nonzero;stroke:none;stroke-width:0.0352778"
           id="path118" />
        <path
           d="m 238.0415,128.96871 h -1.43087 v -0.51859 l -0.0677,0.0956 c -0.15064,0.21555 -0.47449,0.54293 -1.0922,0.54293 -0.58738,0 -1.12219,-0.28751 -1.31022,-0.90205 -0.0829,-0.25541 -0.0829,-0.52705 -0.0903,-0.78246 v -2.52272 h 1.45309 v 2.1075 c 0,0.21554 -0.0296,0.43144 0.10548,0.61489 0.0681,0.096 0.17357,0.1838 0.41452,0.1838 0.0603,0 0.21836,0 0.35383,-0.11219 0.21837,-0.18344 0.21096,-0.50271 0.21096,-0.76623 v -2.02777 h 1.45345 v 4.08729"
           style="fill:#91d798;fill-opacity:1;fill-rule:nonzero;stroke:none;stroke-width:0.0352778"
           id="path120" />
        <path
           d="m 238.77175,124.88142 h 1.40829 l -0.007,0.63077 c 0.15063,-0.26353 0.41416,-0.73448 1.15958,-0.73448 0.0677,0 0.18838,0 0.32385,0.048 v 1.37301 c -0.21837,-0.0878 -0.4064,-0.10371 -0.49671,-0.10371 -0.34678,0 -0.70803,0.17568 -0.84385,0.55068 -0.0751,0.1838 -0.0674,0.42334 -0.0751,0.47096 v 1.85209 h -1.46861 v -4.08729"
           style="fill:#91d798;fill-opacity:1;fill-rule:nonzero;stroke:none;stroke-width:0.0352778"
           id="path122" />
        <path
           d="m 244.45747,127.10886 c -0.12806,0.0797 -0.21837,0.12771 -0.48931,0.19156 -0.12065,0.0321 -0.29386,0.0639 -0.39934,0.13582 -0.0603,0.0399 -0.16581,0.13547 -0.16581,0.3429 0,0.11994 0.0526,0.40746 0.39935,0.39934 0.27093,0 0.51964,-0.1277 0.6096,-0.42298 0.0455,-0.13582 0.0455,-0.26352 0.0455,-0.4071 z m 0.0829,1.85985 c -0.0229,-0.10372 -0.0452,-0.17569 -0.0603,-0.37501 -0.0981,0.0878 -0.18803,0.16757 -0.29351,0.2473 -0.35419,0.24765 -0.8135,0.24765 -0.91898,0.24765 -0.32385,0 -0.67804,-0.072 -0.94897,-0.2794 -0.15805,-0.12771 -0.24095,-0.28751 -0.27835,-0.35913 -0.13582,-0.26352 -0.14322,-0.53516 -0.14322,-0.64664 0,-0.23954 0.0448,-0.78246 0.63253,-1.0541 0.369,-0.17568 1.07667,-0.25506 1.46085,-0.31926 0.2032,-0.0318 0.45967,-0.0639 0.45967,-0.35913 0,-0.19967 -0.10548,-0.35913 -0.45967,-0.35913 -0.42933,0 -0.50447,0.18345 -0.53481,0.41522 h -1.38536 c 0.0152,-0.30374 0.0755,-0.56691 0.26352,-0.79834 0.27094,-0.3436 0.75319,-0.56691 1.64924,-0.56691 0.18062,0 0.3616,0.0159 0.53446,0.0399 0.36936,0.0399 0.74577,0.11995 1.03964,0.39935 0.12029,0.11148 0.19543,0.23918 0.21837,0.29527 0.0825,0.15981 0.12029,0.35913 0.12029,0.75036 0,0.15981 -0.007,0.32703 -0.0148,0.49495 v 0.56656 c -0.008,0.15981 -0.008,0.3115 -0.008,0.4632 0,0.39934 0.0303,0.75036 0.0603,0.88618 0.0374,0.15169 0.0825,0.24765 0.10548,0.31115 h -1.4986"
           style="fill:#91d798;fill-opacity:1;fill-rule:nonzero;stroke:none;stroke-width:0.0352778"
           id="path124" />
        <path
           d="m 248.42551,128.96871 h -1.52858 v -1.62843 h 1.52858 z m 0,-4.36669 -0.4064,2.33116 h -0.71543 l -0.40675,-2.29094 v -1.30916 h 1.52858 v 1.26894"
           style="fill:#91d798;fill-opacity:1;fill-rule:nonzero;stroke:none;stroke-width:0.0352778"
           id="path126" />
      </g>
    </g>
  </g>
</svg>
